<svg width="27" height="27" viewBox="0 0 27 27" fill="none" xmlns="http://www.w3.org/2000/svg">
<path d="M9.23186 8.5473L12.4799 1.66308C12.5745 1.46385 12.7199 1.29628 12.8999 1.17916C13.0799 1.06204 13.2873 1 13.4989 1C13.7105 1 13.9179 1.06204 14.0979 1.17916C14.2778 1.29628 14.4233 1.46385 14.5178 1.66308L17.7659 8.5473L25.0272 9.65783C25.2366 9.6884 25.4337 9.78032 25.5959 9.92311C25.7581 10.0659 25.8788 10.2538 25.9444 10.4654C26.01 10.6769 26.0177 10.9036 25.9667 11.1196C25.9157 11.3356 25.8081 11.5321 25.656 11.6868L20.4026 17.0421L21.6428 24.6079C21.8016 25.5789 20.8264 26.3184 19.9925 25.8605L13.4989 22.2868L7.00396 25.8605C6.17131 26.3197 5.19614 25.5789 5.35491 24.6065L6.59514 17.0407L1.3417 11.6855C1.1904 11.5307 1.0834 11.3344 1.03285 11.1188C0.982295 10.9032 0.990224 10.677 1.05573 10.4659C1.12124 10.2548 1.2417 10.0673 1.40342 9.92472C1.56514 9.7821 1.76163 9.69009 1.97056 9.65915L9.23186 8.5473Z" stroke="black" stroke-width="1.5" stroke-linecap="round" stroke-linejoin="round"/>
</svg>
