<svg width="25" height="25" viewBox="0 0 25 25" fill="none" xmlns="http://www.w3.org/2000/svg">
<g id="bi:star-half" clip-path="url(#clip0_8_51)">
<path id="Vector" d="M8.36554 7.99844L11.778 1.2375C11.8436 1.10149 11.946 0.986615 12.0736 0.905953C12.2012 0.825291 12.3489 0.782083 12.4999 0.78125C12.7859 0.78125 13.0718 0.932813 13.2265 1.2375L16.639 7.99844L24.2921 9.08594C24.4829 9.11593 24.6575 9.2108 24.7864 9.35454C24.9153 9.49829 24.9908 9.68211 24.9999 9.875C25.0108 10.0034 24.9926 10.1326 24.9466 10.253C24.9006 10.3734 24.828 10.4819 24.7343 10.5703L19.2296 15.8141L20.5265 23.2047C20.6484 23.8969 19.964 24.4391 19.3609 24.1297L12.4999 20.6047L5.64211 24.1297C5.57037 24.1669 5.49349 24.1933 5.41398 24.2078C4.87961 24.3016 4.37023 23.8109 4.47648 23.2047L5.77336 15.8141L0.270232 10.5703C0.184678 10.4894 0.116675 10.3917 0.0704432 10.2834C0.0242117 10.1751 0.000738911 10.0584 0.00148195 9.94063C0.00156322 9.77412 0.0475153 9.61085 0.134294 9.46875C0.195855 9.36573 0.279761 9.27785 0.379822 9.2116C0.479883 9.14534 0.593545 9.1024 0.712419 9.08594L8.36554 7.99844ZM12.4999 18.7922C12.626 18.7917 12.7504 18.8217 12.8624 18.8797L18.6218 21.8391L17.5374 15.6563C17.5118 15.5141 17.5215 15.3677 17.5656 15.2302C17.6098 15.0926 17.687 14.968 17.7905 14.8672L22.3327 10.5391L16.0015 9.63906C15.8704 9.61927 15.746 9.56798 15.6391 9.48961C15.5321 9.41124 15.4458 9.30811 15.3874 9.18906L12.5015 3.47344L12.4999 3.47813V18.7906V18.7922Z" fill="black"/>
</g>
<defs>
<clipPath id="clip0_8_51">
<rect width="25" height="25" fill="white"/>
</clipPath>
</defs>
</svg>
