<svg width="50" height="50" viewBox="0 0 50 50" fill="none" xmlns="http://www.w3.org/2000/svg">
<g id="simple-icons:nike">
<path id="Vector" d="M49.9999 16.25L13.4207 31.825C10.3874 33.1083 7.83944 33.7521 5.77902 33.7521C3.44569 33.7521 1.75194 32.9354 0.70194 31.3C0.041523 30.25 -0.152227 28.9187 0.118606 27.3042C0.38944 25.6896 1.11027 23.9708 2.27694 22.1417C3.24986 20.6625 4.84361 18.7187 7.06236 16.3083C6.30978 17.4931 5.75792 18.7939 5.42902 20.1583C4.84569 22.6479 5.37069 24.475 7.00402 25.6417C7.78111 26.1854 8.84986 26.4583 10.2124 26.4583C11.2999 26.4583 12.5249 26.2833 13.8874 25.9333L49.9999 16.25Z" fill="black"/>
</g>
</svg>
