<svg width="25" height="25" viewBox="0 0 25 25" fill="none" xmlns="http://www.w3.org/2000/svg">
<path id="Vector" fill-rule="evenodd" clip-rule="evenodd" d="M13.4903 0.663277C13.403 0.465259 13.2633 0.297557 13.0878 0.180013C12.9123 0.0624679 12.7083 0 12.5 0C12.2917 0 12.0877 0.0624679 11.9122 0.180013C11.7367 0.297557 11.597 0.465259 11.5097 0.663277L8.37977 7.76375L0.962704 8.68498C0.755766 8.71056 0.560159 8.79765 0.399034 8.93596C0.237909 9.07427 0.118011 9.258 0.0535296 9.46541C-0.0109517 9.67282 -0.0173166 9.89522 0.0351879 10.1063C0.0876925 10.3174 0.196869 10.5083 0.349795 10.6564L5.83544 15.9647L4.37951 23.6359C4.33907 23.8498 4.35797 24.0713 4.43398 24.2742C4.50998 24.4772 4.63992 24.6531 4.80842 24.7812C4.97692 24.9093 5.17694 24.9842 5.38483 24.9971C5.59273 25.01 5.7998 24.9603 5.98157 24.854L12.5 21.0343L19.0184 24.854C19.2003 24.9608 19.4077 25.0108 19.6159 24.998C19.8241 24.9853 20.0244 24.9103 20.1932 24.782C20.3619 24.6537 20.4919 24.4774 20.5679 24.2741C20.6438 24.0707 20.6624 23.8489 20.6216 23.6348L19.1657 15.9658L24.6502 10.6564C24.8031 10.5083 24.9123 10.3174 24.9648 10.1063C25.0173 9.89522 25.011 9.67282 24.9465 9.46541C24.882 9.258 24.7621 9.07427 24.601 8.93596C24.4398 8.79765 24.2442 8.71056 24.0373 8.68498L16.6191 7.7626L13.4903 0.663277Z" fill="black"/>
</svg>
